<mxfile host="65bd71144e">
    <diagram id="2-o5U1Pwo-7tJ9eDuyGV" name="architecture">
        <mxGraphModel dx="1171" dy="810" grid="1" gridSize="10" guides="1" tooltips="1" connect="1" arrows="1" fold="1" page="1" pageScale="1" pageWidth="827" pageHeight="1169" math="0" shadow="0">
            <root>
                <mxCell id="0"/>
                <mxCell id="1" parent="0"/>
                <mxCell id="2" value="不動産管理システム" style="shape=process;whiteSpace=wrap;html=1;backgroundOutline=1;" parent="1" vertex="1">
                    <mxGeometry x="424.5" y="20" width="160" height="60" as="geometry"/>
                </mxCell>
                <mxCell id="5" value="" style="endArrow=classic;html=1;exitX=0.5;exitY=1;exitDx=0;exitDy=0;entryX=0.5;entryY=0;entryDx=0;entryDy=0;" parent="1" source="2" edge="1">
                    <mxGeometry width="50" height="50" relative="1" as="geometry">
                        <mxPoint x="330" y="320" as="sourcePoint"/>
                        <mxPoint x="434.5" y="120" as="targetPoint"/>
                    </mxGeometry>
                </mxCell>
                <mxCell id="6" value="Actor" style="shape=umlActor;verticalLabelPosition=bottom;verticalAlign=top;html=1;outlineConnect=0;" parent="1" vertex="1">
                    <mxGeometry x="80" y="330" width="30" height="60" as="geometry"/>
                </mxCell>
                <mxCell id="7" value="" style="endArrow=classic;html=1;exitX=0.5;exitY=0.5;exitDx=0;exitDy=0;exitPerimeter=0;entryX=0;entryY=0.5;entryDx=0;entryDy=0;" parent="1" source="6" edge="1">
                    <mxGeometry width="50" height="50" relative="1" as="geometry">
                        <mxPoint x="330" y="420" as="sourcePoint"/>
                        <mxPoint x="239.00000000000068" y="295" as="targetPoint"/>
                    </mxGeometry>
                </mxCell>
                <mxCell id="8" value="Spring Bean Create" style="text;html=1;strokeColor=none;fillColor=none;align=center;verticalAlign=middle;whiteSpace=wrap;rounded=0;fontSize=19;fontFamily=Courier New;" parent="1" vertex="1">
                    <mxGeometry x="60" y="40" width="270" height="50" as="geometry"/>
                </mxCell>
                <mxCell id="18" value="BeanUtils" style="swimlane;fontStyle=1;align=center;verticalAlign=top;childLayout=stackLayout;horizontal=1;startSize=26;horizontalStack=0;resizeParent=1;resizeParentMax=0;resizeLast=0;collapsible=1;marginBottom=0;fontFamily=Courier New;" parent="1" vertex="1">
                    <mxGeometry x="880" y="310" width="410" height="70" as="geometry"/>
                </mxCell>
                <mxCell id="20" value="" style="line;strokeWidth=1;fillColor=none;align=left;verticalAlign=middle;spacingTop=-1;spacingLeft=3;spacingRight=3;rotatable=0;labelPosition=right;points=[];portConstraint=eastwest;" parent="18" vertex="1">
                    <mxGeometry y="26" width="410" height="8" as="geometry"/>
                </mxCell>
                <mxCell id="21" value="+ instantiateClass(Constructor&lt;T&gt;,Object... args): T" style="text;strokeColor=none;fillColor=none;align=left;verticalAlign=top;spacingLeft=4;spacingRight=4;overflow=hidden;rotatable=0;points=[[0,0.5],[1,0.5]];portConstraint=eastwest;fontStyle=4;fontFamily=Courier New;horizontal=1;" parent="18" vertex="1">
                    <mxGeometry y="34" width="410" height="36" as="geometry"/>
                </mxCell>
                <mxCell id="23" value="SimpleInstantiationStrategy" style="swimlane;fontStyle=1;align=center;verticalAlign=top;childLayout=stackLayout;horizontal=1;startSize=26;horizontalStack=0;resizeParent=1;resizeParentMax=0;resizeLast=0;collapsible=1;marginBottom=0;fontFamily=Courier New;" parent="1" vertex="1">
                    <mxGeometry x="880" y="180" width="410" height="84" as="geometry"/>
                </mxCell>
                <mxCell id="25" value="" style="line;strokeWidth=1;fillColor=none;align=left;verticalAlign=middle;spacingTop=-1;spacingLeft=3;spacingRight=3;rotatable=0;labelPosition=right;points=[];portConstraint=eastwest;fontFamily=Courier New;" parent="23" vertex="1">
                    <mxGeometry y="26" width="410" height="8" as="geometry"/>
                </mxCell>
                <mxCell id="26" value="+ instantiate(RootBeanDefinition,beanName&#10;    ,BeanFactory owner): Object" style="text;strokeColor=none;fillColor=none;align=left;verticalAlign=top;spacingLeft=4;spacingRight=4;overflow=hidden;rotatable=0;points=[[0,0.5],[1,0.5]];portConstraint=eastwest;fontFamily=Courier New;" parent="23" vertex="1">
                    <mxGeometry y="34" width="410" height="50" as="geometry"/>
                </mxCell>
                <mxCell id="34" value="" style="edgeStyle=none;html=1;fontFamily=Courier New;" parent="1" source="27" edge="1">
                    <mxGeometry relative="1" as="geometry">
                        <mxPoint x="1085" y="180" as="targetPoint"/>
                    </mxGeometry>
                </mxCell>
                <mxCell id="27" value="AbstractAutowireCapableBeanFactory" style="swimlane;fontStyle=1;align=center;verticalAlign=top;childLayout=stackLayout;horizontal=1;startSize=30;horizontalStack=0;resizeParent=1;resizeParentMax=0;resizeLast=0;collapsible=1;marginBottom=0;fontFamily=Courier New;" parent="1" vertex="1">
                    <mxGeometry x="880" y="40" width="410" height="100" as="geometry"/>
                </mxCell>
                <mxCell id="28" value="+ instantiationStrategy: InstantiationStrategy" style="text;strokeColor=none;fillColor=none;align=left;verticalAlign=top;spacingLeft=4;spacingRight=4;overflow=hidden;rotatable=0;points=[[0,0.5],[1,0.5]];portConstraint=eastwest;fontFamily=Courier New;" parent="27" vertex="1">
                    <mxGeometry y="30" width="410" height="26" as="geometry"/>
                </mxCell>
                <mxCell id="29" value="" style="line;strokeWidth=1;fillColor=none;align=left;verticalAlign=middle;spacingTop=-1;spacingLeft=3;spacingRight=3;rotatable=0;labelPosition=right;points=[];portConstraint=eastwest;fontFamily=Courier New;" parent="27" vertex="1">
                    <mxGeometry y="56" width="410" height="8" as="geometry"/>
                </mxCell>
                <mxCell id="30" value="+ instantiateBean(beanName,&#10;    RootBeanDefinition): BeanWrapper" style="text;strokeColor=none;fillColor=none;align=left;verticalAlign=top;spacingLeft=4;spacingRight=4;overflow=hidden;rotatable=0;points=[[0,0.5],[1,0.5]];portConstraint=eastwest;fontFamily=Courier New;" parent="27" vertex="1">
                    <mxGeometry y="64" width="410" height="36" as="geometry"/>
                </mxCell>
                <mxCell id="35" value="" style="edgeStyle=none;html=1;fontFamily=Courier New;entryX=0.5;entryY=0;entryDx=0;entryDy=0;" parent="1" source="26" target="18" edge="1">
                    <mxGeometry relative="1" as="geometry">
                        <mxPoint x="1100" y="290" as="sourcePoint"/>
                        <mxPoint x="1095" y="190" as="targetPoint"/>
                    </mxGeometry>
                </mxCell>
            </root>
        </mxGraphModel>
    </diagram>
    <diagram id="mqhYBLrUxtjFdQs51USM" name="User case mode">
        <mxGraphModel dx="965" dy="1836" grid="1" gridSize="10" guides="1" tooltips="1" connect="1" arrows="1" fold="1" page="1" pageScale="1" pageWidth="827" pageHeight="1169" math="0" shadow="0">
            <root>
                <mxCell id="CAcM5h2zT_rix6jCmabe-0"/>
                <mxCell id="CAcM5h2zT_rix6jCmabe-1" parent="CAcM5h2zT_rix6jCmabe-0"/>
                <mxCell id="KugXX5dkTvGhBRWu_H-B-0" value="統計管理" style="ellipse;whiteSpace=wrap;html=1;fontFamily=Courier New;fontSize=19;" parent="CAcM5h2zT_rix6jCmabe-1" vertex="1">
                    <mxGeometry x="130" y="-350" width="460" height="300" as="geometry"/>
                </mxCell>
                <mxCell id="TVT99f8Mo8HbX8ZyI4ve-0" value="view" style="ellipse;whiteSpace=wrap;html=1;fontFamily=Courier New;fontSize=19;" parent="CAcM5h2zT_rix6jCmabe-1" vertex="1">
                    <mxGeometry x="190" y="-260" width="90" height="60" as="geometry"/>
                </mxCell>
                <mxCell id="TVT99f8Mo8HbX8ZyI4ve-1" value="user" style="shape=umlActor;verticalLabelPosition=bottom;verticalAlign=top;html=1;outlineConnect=0;fontFamily=Courier New;fontSize=19;" parent="CAcM5h2zT_rix6jCmabe-1" vertex="1">
                    <mxGeometry x="30" y="-290" width="30" height="60" as="geometry"/>
                </mxCell>
                <mxCell id="TVT99f8Mo8HbX8ZyI4ve-2" value="" style="endArrow=classic;html=1;fontFamily=Courier New;fontSize=19;entryX=0.018;entryY=0.8;entryDx=0;entryDy=0;entryPerimeter=0;" parent="CAcM5h2zT_rix6jCmabe-1" source="TVT99f8Mo8HbX8ZyI4ve-5" target="TVT99f8Mo8HbX8ZyI4ve-4" edge="1">
                    <mxGeometry width="50" height="50" relative="1" as="geometry">
                        <mxPoint x="330" y="-180" as="sourcePoint"/>
                        <mxPoint x="380" y="-230" as="targetPoint"/>
                    </mxGeometry>
                </mxCell>
                <mxCell id="TVT99f8Mo8HbX8ZyI4ve-3" value="" style="endArrow=classic;html=1;fontFamily=Courier New;fontSize=19;entryX=0;entryY=0.5;entryDx=0;entryDy=0;" parent="CAcM5h2zT_rix6jCmabe-1" source="TVT99f8Mo8HbX8ZyI4ve-1" target="TVT99f8Mo8HbX8ZyI4ve-0" edge="1">
                    <mxGeometry width="50" height="50" relative="1" as="geometry">
                        <mxPoint x="90" y="-130" as="sourcePoint"/>
                        <mxPoint x="380" y="-230" as="targetPoint"/>
                    </mxGeometry>
                </mxCell>
                <mxCell id="TVT99f8Mo8HbX8ZyI4ve-4" value="edit" style="ellipse;whiteSpace=wrap;html=1;fontFamily=Courier New;fontSize=19;" parent="CAcM5h2zT_rix6jCmabe-1" vertex="1">
                    <mxGeometry x="230" y="-180" width="90" height="60" as="geometry"/>
                </mxCell>
                <mxCell id="TVT99f8Mo8HbX8ZyI4ve-5" value="admin" style="shape=umlActor;verticalLabelPosition=bottom;verticalAlign=top;html=1;outlineConnect=0;fontFamily=Courier New;fontSize=19;" parent="CAcM5h2zT_rix6jCmabe-1" vertex="1">
                    <mxGeometry x="100" y="-130" width="30" height="60" as="geometry"/>
                </mxCell>
            </root>
        </mxGraphModel>
    </diagram>
    <diagram id="CE_BhMlzEkZjJgNdHg6J" name="NFR">
        <mxGraphModel dx="820" dy="567" grid="1" gridSize="10" guides="1" tooltips="1" connect="1" arrows="1" fold="1" page="1" pageScale="1" pageWidth="827" pageHeight="1169" math="0" shadow="0">
            <root>
                <mxCell id="M74L7A3Clt21dNZ6silR-0"/>
                <mxCell id="M74L7A3Clt21dNZ6silR-1" parent="M74L7A3Clt21dNZ6silR-0"/>
            </root>
        </mxGraphModel>
    </diagram>
    <diagram id="QUF273GN6UwXL_5aOvHa" name="Rock">
        <mxGraphModel dx="820" dy="567" grid="1" gridSize="10" guides="1" tooltips="1" connect="1" arrows="1" fold="1" page="1" pageScale="1" pageWidth="827" pageHeight="1169" math="0" shadow="0">
            <root>
                <mxCell id="dYth1eZLRLognbgsLatV-0"/>
                <mxCell id="dYth1eZLRLognbgsLatV-1" parent="dYth1eZLRLognbgsLatV-0"/>
                <mxCell id="dYth1eZLRLognbgsLatV-2" value=":Object" style="shape=umlLifeline;perimeter=lifelinePerimeter;whiteSpace=wrap;html=1;container=1;collapsible=0;recursiveResize=0;outlineConnect=0;" vertex="1" parent="dYth1eZLRLognbgsLatV-1">
                    <mxGeometry x="70" y="120" width="100" height="300" as="geometry"/>
                </mxCell>
                <mxCell id="dYth1eZLRLognbgsLatV-3" value="" style="html=1;points=[];perimeter=orthogonalPerimeter;" vertex="1" parent="dYth1eZLRLognbgsLatV-2">
                    <mxGeometry x="45" y="90" width="10" height="80" as="geometry"/>
                </mxCell>
            </root>
        </mxGraphModel>
    </diagram>
</mxfile>